<?xml version="1.0" encoding="UTF-8"?>
<!DOCTYPE svg PUBLIC "-//W3C//DTD SVG 1.1//EN" "http://www.w3.org/Graphics/SVG/1.1/DTD/svg11.dtd">
<!-- Creator: CorelDRAW -->
<svg xmlns="http://www.w3.org/2000/svg" xml:space="preserve" width="135.466mm" height="77.8932mm" version="1.1" style="shape-rendering:geometricPrecision; text-rendering:geometricPrecision; image-rendering:optimizeQuality; fill-rule:evenodd; clip-rule:evenodd"
viewBox="0 0 13545.84 7788.85"
 xmlns:xlink="http://www.w3.org/1999/xlink"
 xmlns:xodm="http://www.corel.com/coreldraw/odm/2003">
 <defs>
  <style type="text/css">
   <![CDATA[
    .fil3 {fill:#5EBEF6}
    .fil4 {fill:#91D1F7}
    .fil15 {fill:#93B7AB}
    .fil0 {fill:#99CCCC}
    .fil12 {fill:#9EB59C}
    .fil16 {fill:#A3B594}
    .fil13 {fill:#A7B48F}
    .fil6 {fill:#AEADAA}
    .fil18 {fill:#AEB385}
    .fil9 {fill:#AFD8ED}
    .fil20 {fill:#B1B381}
    .fil19 {fill:#B1C4B2}
    .fil14 {fill:#B4B27C}
    .fil10 {fill:#B7B277}
    .fil17 {fill:#C9B162}
    .fil1 {fill:#D5D4CF}
    .fil5 {fill:#D68F0D}
    .fil7 {fill:#D78E0B}
    .fil8 {fill:#D88F0D}
    .fil11 {fill:#DCC9A3}
    .fil2 {fill:#E9EAE6}
   ]]>
  </style>
   <clipPath id="id0">
    <rect width="13545.84" height="7788.85"/>
   </clipPath>
   <clipPath id="id1">
    <path d="M-0 7788.85l13545.83 0 0 -7788.85 -13545.83 0 0 7788.85z"/>
   </clipPath>
   <clipPath id="id2">
    <rect width="13545.84" height="7788.85"/>
   </clipPath>
 </defs>
 <g id="Capa_x0020_1">
  <metadata id="CorelCorpID_0Corel-Layer"/>
  <g style="clip-path:url(#id0)">
  </g>
  <g style="clip-path:url(#id1)">
   <image id="delivery-truck.png" x="-0.01" y="0" width="13545.84" height="7788.85" xlink:href="Sin título-11_Images\Sin título-11_ImgID1.png"/>
  </g>
  <g style="clip-path:url(#id2)">
  </g>
  <path class="fil0" d="M5511.01 5655.38c8,26.71 14.99,43.24 28.32,66.84l65.76 66.7c1.65,1 3.84,2.29 5.46,3.29 1.6,0.98 3.7,2.41 5.27,3.38 37.96,23.34 45.76,15.59 107.27,15.86l558.8 0.04c78.96,0.04 147.21,13.65 215.11,-59.2 52.53,-56.34 80.4,-133.64 60.6,-213.43 -3.22,-13 -23.1,-44.32 -32.1,-59.32 -36.8,-61.35 -105.09,-93.7 -183.98,-94.29 -124.09,-0.94 -248.72,0.14 -372.88,0.14 -183.73,0 -297.35,-30.76 -402.12,62.15 -50.48,44.77 -77.84,133.31 -55.51,207.85zm398.37 -689.36c101.09,0 98.83,5.53 188.13,-71.31l8.31 -7.34c21.89,-26.43 70.55,-182.03 -30.01,-287.73 -77.26,-81.23 -201.05,-59.78 -344.22,-59.78 -181.04,0 -273.81,155.74 -208.51,299.7 71.27,157.08 212.12,126.45 386.3,126.45zm862.51 -189.94c11.8,35.52 1.01,17.26 36.5,56.12 31.7,34.72 100.89,106.46 144.08,120.45 10.91,9.88 47.43,33.28 58.88,40.98 25.95,17.46 37.3,28.13 62.49,47.37 16.16,12.34 116.78,76.92 132.12,79.24 21.83,39.42 52.08,51.84 60.66,54.83 19.47,6.8 26.36,2.65 50.34,14.14 16.96,8.13 5.42,6.48 34.31,17.11 37.46,13.77 118.68,53.49 163.47,48.88 21.64,3.08 94.44,25.86 122.56,35.18 197.76,65.57 628.21,53.31 842.81,-20.14 50.37,-17.24 89.07,-36.96 108.45,-35.02 64.76,-0.55 47.26,-8.11 89.65,-26.62 54.78,-23.92 167.33,-62.59 201.03,-114.9 26.14,-22.83 2.75,-7.15 38.54,-27.19 22.66,-12.69 21.36,-13.49 40.4,-27.84 18.71,-14.11 61.6,-43.86 75.26,-51.26l48.7 -28.41c12.89,-11.69 20.8,-19.37 31.4,-28.23 46.81,-39.12 173.03,-149.65 183.42,-197.33l12.64 -3.52c20.57,-10.06 38.03,-39.36 53.24,-58.19 93.89,-116.22 154.52,-248.49 215.95,-383.73 50.13,-110.37 20.72,-77.26 43.65,-138.83 8.52,-22.89 14.22,-4.94 8.54,-51.47 2.51,-52.93 17.75,-80.62 31.58,-165.47 11.58,-71.08 19.42,-88.37 20.62,-173.25 0.92,-65.66 3.64,-134.01 -2.61,-198.31 -8.22,-84.61 -26.85,-268.59 -57.89,-340.66 -19.33,-44.89 -8.65,-38.89 -19.69,-84.91 -6.19,-25.75 -7.21,-12.76 -15.6,-32.81 -9.41,-22.48 -3.56,-12.56 -9.2,-36.05 -8.11,-33.73 1.81,-7 -18.23,-35.69 -1,-1.42 -2.55,-3.42 -3.53,-4.92l-107.82 -206.46 -3.11 -32.02c-19.31,-15.93 -42.31,-56.21 -59.56,-83.34 -14.31,-22.51 -36.01,-59.53 -64.68,-69.85 3.35,-31.72 4.99,-20.55 -27.22,-59.41 -1.15,-1.39 -2.65,-3.46 -3.78,-4.82 -5.37,-6.43 -4.37,-5.52 -11.19,-12.85 -1.11,-1.19 -2.94,-2.92 -4.08,-4.11l-25.02 -25.91c-20.6,-22.24 -4.05,-16.15 -37.2,-27.43 -28.11,-22.22 -91.64,-102.4 -136.99,-105.8 -5.21,-14.66 -16.67,-18.19 -20.01,-20.7l-6.28 -26.12c-42.02,-17.1 -47.84,-50.66 -98.12,-54.69 -6.95,-2.29 -33.35,-17.69 -43.23,-25.33 -77.73,-60.11 -325.34,-171.51 -429.62,-202.48 -24.47,-7.26 -42.21,-3.32 -66.76,-11.57 -19.53,-6.56 -20,-13.03 -47.8,-17 -99.09,-14.12 -159.39,-26.59 -253.36,-28.29 -283.07,-5.13 -487.34,24.03 -728.13,126.16l-186.94 84.52c-36.43,8.46 -75.99,30.62 -98.11,62.4 -8,7.44 -75.26,57.25 -88.01,64.26 -34.03,6.12 -42.95,19.66 -68.59,41.1 -11.17,9.33 -18.44,13.25 -28.6,23.01 -17.6,16.91 -9.99,3.5 -14.54,27.02 -19.61,4.49 -13.81,-1.52 -42.12,25.98 -24.07,23.38 -85.09,72.19 -83.19,102.71 -15.24,5.17 -8.65,-0.5 -22.38,11.58 -11.25,9.9 -0.07,0.24 -11.45,14.38 -37.37,46.43 -155.73,187.93 -152.71,227.46 -33.14,8.82 -30.88,20.17 -34.18,58.5 -16.43,24.3 -35.47,65.94 -50.4,102.01 -7.23,17.47 -16.31,43.97 -24.45,61.71l-95.24 292.48c-11.39,47.27 -9.93,93.18 -22.09,138.93 -11.13,41.9 -8.76,100.42 -9.33,151.82 -1.83,163.23 -4.49,143.3 19.76,293.43 8.49,52.5 6.25,86.3 22.39,140.21 36.81,122.99 30.11,127.56 78.05,242.62l37.54 79.58c66.96,138.73 109.03,199.73 199.51,317.14 16.1,20.9 57.34,59.5 64.52,79.6zm5296.08 -2354.77c-27.77,18.87 -456.73,8.08 -528.61,8.07 -140.44,-0.02 -244.12,-7.74 -310.18,128.99 -15.66,32.42 -15.19,42.56 -15.04,83.86 0.21,54.46 9.5,66.43 30.3,99.35 33.23,52.61 89.21,105.97 158.84,110.03 138.17,8.07 583.94,-17.01 669.45,5.86 0,85.71 10.52,345.75 -5.35,410.45 -36.58,22.3 -571.59,-3.56 -671.83,8.43 -85.17,10.19 -92.81,64.29 -153.06,75.68 -5.2,66.62 -27.78,34.55 -28.08,127.31 -0.22,70.8 -5.23,52.83 17.66,97.33 15.83,30.78 4.69,25.28 28.68,44.63 78.59,63.42 99.02,76.38 193.9,76.24 84.55,-0.11 583.52,-15.49 615.06,10.62l3.02 405.4c-177.63,56.99 -588.15,-60.57 -764.46,48.64 -56.05,34.71 -98.72,118.08 -84.71,189.06 11.43,57.92 23.48,81.33 63.8,117.17l21.26 20.58c44.19,37.28 49.53,4.88 79.46,38.36l7.38 10.9c129.33,6.45 602.85,-14.93 677.29,8.45l0.12 1879.2c-7.59,36.65 -29.61,26.38 -76.02,25.58 -381.49,-6.56 -811.66,-0.29 -1196.85,-0.29 -11.6,-54.23 1.57,-66.88 -25.14,-184.12 -39.81,-174.81 -135.36,-360.52 -274.43,-469.67 -21.9,-17.19 -7.6,-5.16 -32.3,-19.07 -45.46,-25.6 -103.58,-80.02 -166.77,-103.54 -101.11,-37.66 -42.71,-33.43 -157.81,-53.75 -85.65,-15.12 -9.68,-23.91 -195.81,-23.97 -30.31,-0.01 -70.99,-1.18 -100.34,2.17l-170.66 39.64c-22.66,10.42 -15.39,5.22 -39.51,12.79 -57.53,18.05 -151.5,83.3 -203.09,117.49 -82.4,54.61 -166.24,178.05 -224.65,257.22 -37.4,50.7 -78.78,170.97 -84.52,238.66 -4.14,48.75 -14.67,47.2 -18.36,92.63 -2.01,24.67 8.91,78.81 -13.95,88.42 -68.48,15.97 -1777.87,5.09 -1896.42,5.09 -633.93,0 -1267.85,0 -1901.78,0l0 -4817.24c0,-56.47 -0.51,-113.16 0.12,-169.6 1.03,-93.66 9.99,-79.31 -87.76,-78.6 -115.64,0.85 -231.57,0.09 -347.24,0.09l0 -14.92 7213.16 1.57c0,174.64 0,349.27 0,523.91 0,112.15 14.2,438.01 -4.76,524.9z"/>
  <path class="fil0" d="M3807.09 4808.77c31.64,-123.68 -36.93,-197.4 -119.97,-249.89 -52.59,-33.24 -275.29,-18.89 -351.46,-18.89 -123.93,0 -249.17,-1.81 -372.93,-0.17 -210,2.78 -308.44,283.04 -88.98,408.46 65.25,37.28 256.57,17.64 351.86,17.64 124,0 248.59,1.18 372.52,-0.08 104.13,-1.06 111.29,1.36 179.17,-95.99 1.36,-1.96 29.77,-60.98 29.8,-61.08zm1057.84 1642.43l-1684.5 0c-14.53,-67.85 -5.44,-201.47 -74.54,-346.57l-51.82 -100.22c-7.22,-10.87 -1.01,-2.61 -11.02,-14.39l-107.18 -138.31c-60.56,-73.2 -164.72,-132.97 -249.13,-173.49 -31.82,-15.28 -42.85,-17.94 -76.74,-27.54 -96.01,-27.18 -115.05,-52.53 -273.32,-53.62 -569.76,-3.89 -1140.35,-1.02 -1710.2,-1.02l-0.41 -1608.88c0.11,-48.68 1.76,-61.87 28.31,-92.37 12.88,16.69 -19.74,12.23 22.9,14.58 10.51,0.3 2660.25,6.09 2716.08,-4.52l67.31 -32c1.38,-0.8 3.46,-2.15 4.72,-3.01 29.71,-20.41 23.18,-20.74 25.47,-32.23 34.99,-29.22 63.3,-63.89 77.63,-107.98 9.34,-30.01 25.25,-58.81 28.4,-89.82 9.34,-91.92 1.88,-1747.54 1.88,-1853.45l1263.54 0 2.62 4664.85z"/>
  <path class="fil1" d="M12072.73 1372.51l-7213.16 -1.57c0,-118.32 -14.08,-799.04 8.47,-846.04 22.02,-22.02 3288.19,-8.46 3598.11,-8.46 309.91,0 3576.09,-13.56 3598.11,8.46 22.56,47.03 8.46,729.13 8.46,847.61z"/>
  <path class="fil2" d="M7831.14 2972.32c-26.57,11.43 -28.92,3.99 -32.45,49.56 -7.51,96.92 13.64,469.4 -12.68,497.06 -23.15,24.32 -450.99,159.41 -524.2,221.36 -50.57,42.81 -71.84,96.55 -72.01,162.29 -0.08,30.28 -1.67,65.44 9.83,92.25 56.01,130.73 260.46,176.1 323.93,94.35l319.43 -129.68c49.93,-13.82 78.85,-24.79 119.84,-43.36 47.99,-21.74 178.22,-65.18 207.83,-97.03l30.87 -44.5c40.79,-90.31 26.73,-111.59 26.71,-210.38l0.05 -457.2c0.16,-86.28 1.9,-69.52 -24.82,-134.55 -76.62,-186.52 -340.82,-130.62 -372.34,-0.17zm897.5 -314.76c25.14,42.55 63.69,46.6 98.61,90.23 30.97,38.7 11.83,10.38 49.76,40.78 51.45,41.24 53.78,70.38 81.26,95.47 68.12,62.22 74.63,117.58 125.53,147.83 14.13,25.86 32.31,53.27 47.31,87.01 49.78,112.07 89.78,202.85 105.99,326.29 19.56,148.94 24.67,49.13 23.49,263.19 -0.28,50.39 -17.66,213.57 -32.43,255.11 -10.26,28.84 -8.78,4.21 -18.9,46.33 -19.08,79.4 -27.18,89.98 -57.71,162.97 -75.68,180.89 -117.26,217.52 -229.57,346.79 -24.28,27.95 -16.63,28.08 -47.31,53.68l-9.45 7.57c-74.05,62.31 -66.62,45.76 -108.32,78.92l-74.96 51.85c-140.46,101.28 -57.9,42.86 -189.97,98.96 -31.34,13.31 -2.56,8.93 -50.76,19.35l-113.49 30.62c-59.35,14.19 -15.75,14.97 -173.74,43.18 -158.63,28.33 -360.81,-6.51 -514.51,-48.33l-291.81 -138.91c-27.57,-19.74 -54.8,-33.71 -86.29,-57.77 -173.23,-132.34 -211.78,-232.76 -245.56,-261.06 -40.43,-33.89 -33.01,-39.31 -59.17,-86.71 -24.8,-44.92 -7.81,11.16 -58.83,-83.01l-68.85 -149.95c-13.22,-33.92 -26.63,-153.31 -32.53,-182.49 -13.04,-64.52 -21.59,24.66 -23.37,-195.76 -1.58,-195.88 0.8,-113.64 22.84,-265.83 7.86,-54.27 18.45,-55.6 29.24,-113.12l46.06 -132.56c4.25,-9.93 5.24,-15.38 9.18,-25.11l77.75 -141.39c79.01,-118.81 94.15,-135.93 178.45,-237.35 1.1,-1.33 2.58,-3.38 3.69,-4.68l53.21 -46.47c1.45,-1.1 3.46,-2.56 4.92,-3.68l96.05 -74.46c48.11,-42.77 138.4,-82.03 192.42,-111.65 35.93,-19.7 62.67,-26.76 102.71,-40.74 225.69,-78.81 534.41,-111.15 752.21,-32.09 23.8,8.64 33.28,7.44 55.69,12.87 35.38,8.57 155.2,56.13 200.63,85.6l97.41 55.33c7.43,5.33 29.39,26.11 33.11,33.18z"/>
  <path class="fil3" d="M9083.8 3031.88c-9.34,-36.21 -31.07,-62.76 -51.32,-94.4 -46.65,-72.92 -244.07,-274.69 -303.84,-279.91 -3.72,-7.07 -25.68,-27.85 -33.11,-33.18l-97.41 -55.33c-45.43,-29.48 -165.25,-77.04 -200.63,-85.6 -22.41,-5.43 -31.89,-4.23 -55.69,-12.87 -217.8,-79.07 -526.52,-46.72 -752.21,32.09 -40.05,13.98 -66.79,21.04 -102.71,40.74 -54.02,29.63 -144.31,68.89 -192.42,111.65l-96.05 74.46c-1.46,1.12 -3.47,2.58 -4.92,3.68l-53.21 46.47c-1.11,1.3 -2.59,3.35 -3.69,4.68 -84.29,101.41 -99.44,118.53 -178.45,237.35l-77.75 141.39c-3.94,9.73 -4.93,15.18 -9.18,25.11l-46.06 132.56c-10.79,57.53 -21.38,58.86 -29.24,113.12 -22.04,152.19 -24.42,69.96 -22.84,265.83 1.78,220.42 10.33,131.24 23.37,195.76 5.9,29.18 19.31,148.57 32.53,182.49l68.85 149.95c51.02,94.16 34.03,38.09 58.83,83.01 26.16,47.41 18.74,52.83 59.17,86.71 33.78,28.31 72.33,128.72 245.56,261.06 31.5,24.06 58.73,38.03 86.29,57.77l291.81 138.91c153.7,41.82 355.88,76.66 514.51,48.33 157.99,-28.21 114.39,-28.99 173.74,-43.18l113.49 -30.62c48.2,-10.42 19.42,-6.04 50.76,-19.35 132.07,-56.11 49.51,2.32 189.97,-98.96l74.96 -51.85c41.71,-33.16 34.28,-16.61 108.32,-78.92l9.45 -7.57c30.68,-25.6 23.03,-25.73 47.31,-53.68 112.3,-129.27 153.89,-165.9 229.57,-346.79 30.53,-72.99 38.63,-83.58 57.71,-162.97 10.12,-42.12 8.64,-17.49 18.9,-46.33 14.77,-41.55 32.15,-204.73 32.43,-255.11 1.18,-214.07 -3.93,-114.25 -23.49,-263.19 -16.21,-123.44 -56.22,-214.22 -105.99,-326.29 -15,-33.75 -33.18,-61.16 -47.31,-87.01zm-132.45 -739.73c23.71,40.03 13.49,20.44 49.03,44.08l47.51 33.25c1.38,-2.14 5.26,2.3 7.87,3.48 3.34,2.51 14.8,6.04 20.01,20.7 14.69,27.46 -4.52,2.6 17.58,27.59 25.81,29.19 99.65,79.3 114.41,113.82l28.31 5.82 85.17 93.09c1.5,19.8 -2.95,16.92 23.76,51.53 46.15,59.81 73.97,114.74 103.58,133.67l107.82 206.46c0.98,1.5 2.53,3.5 3.53,4.92 20.04,28.69 10.12,1.96 18.23,35.69 5.64,23.49 -0.21,13.57 9.2,36.05 8.39,20.05 9.41,7.06 15.6,32.81 11.04,46.03 0.36,40.03 19.69,84.91 31.04,72.07 49.67,256.04 57.89,340.66 6.25,64.3 3.53,132.65 2.61,198.31 -1.2,84.87 -9.04,102.17 -20.62,173.25 -13.83,84.85 -29.07,112.54 -31.58,165.47 -13.28,9.67 -20.59,8.61 -27.9,43.72 -19.18,92.09 -13.88,33.35 -28.12,91.53 -24.25,99.09 -84.47,198.28 -135.1,287.67 -11.64,20.55 -27.94,45.97 -45.97,73 -17.41,26.09 -33.48,42.51 -51.26,66.75l-45.67 73.07c-26.49,5.05 -4.39,-5.22 -24.47,9.95l-192.08 189.13c-40.64,33.65 -34.59,23.36 -46.97,54.89 -13.66,7.4 -56.55,37.15 -75.26,51.26 -19.04,14.35 -17.74,15.15 -40.4,27.84 -35.79,20.04 -12.4,4.36 -38.54,27.19 -52.02,9.21 -105.91,53.34 -146.92,71.78 -54.99,24.73 -121.77,40.76 -143.76,69.75 -19.38,-1.94 -58.09,17.78 -108.45,35.02 -214.6,73.45 -645.05,85.7 -842.81,20.14 -28.12,-9.32 -100.92,-32.1 -122.56,-35.18 -27.03,-29.08 -49.07,-28 -118.32,-53.88 -85,-31.77 -141.09,-72.93 -190.45,-81.08 -15.34,-2.32 -115.96,-66.9 -132.12,-79.24 -25.19,-19.24 -36.54,-29.91 -62.49,-47.37 -11.45,-7.7 -47.97,-31.1 -58.88,-40.98 -1.4,-2.82 -2.8,-6.22 -4.09,-8.53l-176.49 -168.04c-7.18,-20.1 -48.42,-58.7 -64.52,-79.6 -90.47,-117.41 -132.55,-178.41 -199.51,-317.14l-37.54 -79.58c-47.94,-115.05 -41.24,-119.62 -78.05,-242.62 -16.14,-53.91 -13.9,-87.71 -22.39,-140.21 -24.25,-150.13 -21.59,-130.2 -19.76,-293.43 0.57,-51.4 -1.8,-109.92 9.33,-151.82 12.16,-45.75 10.7,-91.66 22.09,-138.93l95.24 -292.48c8.14,-17.74 17.22,-44.24 24.45,-61.71 14.93,-36.08 33.97,-77.72 50.4,-102.01 22.8,-18.43 32.49,-31.18 34.18,-58.5 35.07,-15.35 83.63,-120.42 159.12,-204.21 37.4,-41.51 25.26,-22.14 27.42,-49.21 21.67,-6.55 13.74,-1.21 39.29,-28.4 44.92,-47.81 81.72,-70.06 86.01,-100.29 32.52,-4.93 32.74,-17.17 60.29,-40.23 30.97,-25.94 28.15,-15.25 51.44,-50.9 12.76,-7.01 80.02,-56.82 88.01,-64.26 46.3,-4.82 29.49,-8.07 59.43,-25.59 31.04,-18.15 34.6,-0.71 38.69,-36.81l186.94 -84.52c240.79,-102.13 445.05,-131.29 728.13,-126.16 93.97,1.7 154.27,14.17 253.36,28.29 27.8,3.97 28.27,10.44 47.8,17 24.55,8.25 42.29,4.31 66.76,11.57 104.28,30.97 351.9,142.37 429.62,202.48 9.88,7.64 36.28,23.04 43.23,25.33z"/>
  <path class="fil4" d="M3568.49 3729.63c-26.34,10.88 -40.47,35.6 -70.59,74.32 -25.98,33.41 -9.88,29.03 -7.04,33.67 -2.29,11.49 4.24,11.82 -25.47,32.23 -1.26,0.86 -3.34,2.21 -4.72,3.01l-67.31 32c-55.83,10.61 -2705.57,4.82 -2716.08,4.52 -42.64,-2.35 -10.02,2.11 -22.9,-14.58 77.91,12.13 210.15,4.32 293.97,4.53 106.75,0.28 97.37,-23.09 138.66,-69.44 36.59,-41.09 6.53,-18.92 71.18,-89.52l22.11 -28.27c10.31,-13.43 -3.5,5.96 10.82,-14.09 76.09,-106.56 61.81,-56.69 101.17,-126.7 33.2,-59.06 120.96,-157.15 162.98,-210.93l235.31 -298.53c13.65,-16.85 20.75,-25.05 34.31,-41.64 79.77,-97.56 110.66,-150.83 202.45,-255.05l155.18 -191.75c55.33,-63.9 80.6,-114.28 123.96,-163.97l64.99 -77.72c45.64,-40.72 14.32,-30.24 54.53,-63.97 34.02,-28.53 41.31,-41.91 82.41,-71.27 92.6,-66.15 21.45,-44.88 185.14,-112.77 139.8,-57.99 203.16,-74.44 386.54,-74.37 197.91,0.07 405.21,5.93 601.92,-0.48 19.24,-42.17 9.2,-169.25 9.2,-222.51l7.56 0c0,105.91 7.46,1761.52 -1.88,1853.45 -3.15,31.02 -19.06,59.82 -28.4,89.82z"/>
  <path class="fil5" d="M5294.45 6451.2l-429.52 0 -2.62 -4664.85 -2.74 -400.5c115.67,0 231.6,0.76 347.24,-0.09 97.75,-0.71 88.79,-15.07 87.76,78.6 -0.63,56.44 -0.12,113.13 -0.12,169.6l0 4817.24z"/>
  <path class="fil6" d="M2595.23 6442.73c0.12,-112.09 3.87,-86.03 -18.55,-111.88 -79.51,-91.71 -177.08,-207.95 -355.12,-130.17 -49.04,21.42 -113.79,91.18 -131.38,131.89 -47,108.74 -25.78,217.6 49.68,290.09l35.65 25.73c88.46,56.01 56.87,15.2 104.94,38.47 22.91,11.09 -15.79,12.65 47.09,16.6 96.86,6.08 203.62,-59.57 248.07,-147.34 18.6,-36.72 19.58,-66.87 19.63,-113.38zm585.2 8.47c4.53,34.75 5.48,73.72 1.86,109.07 -6.17,60.42 -50,188.91 -79.94,250.25 -28.58,58.53 -46.52,87.16 -83.56,136.56l-97.97 120.78 -59.18 9.16c-15.78,47.17 -74.69,71.44 -111.79,92.62 -35.3,20.17 29.6,-14.39 -11.04,6.41 -72.11,36.9 -78.51,45.62 -146.49,59.17 -31.79,6.34 -229.11,86.83 -389.79,37.13 -32.81,-10.15 -67.45,-24.88 -91.1,0.06l-64.26 -23.83c-18.7,-7.26 -16.53,-4.76 -33.07,-9.2 -72.12,-19.37 -208.25,-114.58 -256.31,-158.52l-21.86 -20.48c-118.28,-107.87 -159.93,-201.67 -216.36,-333.94 -35.08,-82.22 -46.47,-184.04 -46.47,-280.22 17.3,-22.77 4.4,-121.16 22.84,-167.54 19.7,-49.58 27.92,-100.24 41.08,-155.99l68.15 -124.74c30.13,-52.7 52.57,-66.39 78.38,-108.65 30.36,-49.75 19.19,-27.92 57.97,-66.7l63.96 -53.26c10.73,-6.41 18.34,-10.91 26.84,-15.46 74.71,-39.95 112.15,-65.12 190.97,-98.6l131.66 -46.03c0.9,-2.61 3.72,-2.17 5.45,-7.28l-1533.9 -0.28 0 -5.65c569.85,0 1140.44,-2.87 1710.2,1.02 158.27,1.09 177.31,26.44 273.32,53.62 33.89,9.6 44.92,12.26 76.74,27.54 84.4,40.52 188.57,100.29 249.13,173.49l107.18 138.31c10.01,11.78 3.8,3.52 11.02,14.39l51.82 100.22c69.1,145.1 60.01,278.72 74.54,346.57z"/>
  <path class="fil6" d="M10015.53 6187.7c-97.6,-36.63 -226.08,18.4 -283.7,97.96 -18.46,25.48 -44.85,47.41 -49.08,73.26 -4.48,27.4 -3.43,105.5 -1.81,135.3 2.51,46.29 15.89,45.33 38.65,83.86 41.07,69.53 73.33,83.55 145.62,116.38 33.1,15.03 82.01,13.75 125.53,10.92 115.26,-7.48 260.41,-181.18 209.22,-309.84 -34.19,-85.91 -10.23,-96.5 -99.32,-165.17 -35.62,-27.45 -44.86,-27.57 -85.1,-42.68zm784.45 263.5c15.99,123.4 -9.04,136.2 -21.02,196.28l-25.31 84.74c-104.86,253.92 -198.58,298.43 -213.3,335.64l-59.18 9.16c-14.61,43.93 -30.21,31.92 -91.59,78.2 -27.52,20.75 -13.15,12.85 -43.29,26.36l-83.78 42.39c-26.4,10.74 -23.08,5.03 -50.75,11.09 -32.19,7.04 -66.29,50.12 -272.51,49.46 -124.25,-0.39 -195.56,-47.96 -208.29,-12.1 -13.14,-5.13 -20.88,-5.57 -34.97,-10.85l-62.36 -22.18c-83.14,-22.33 -219.79,-125.76 -278.17,-179 -9.48,-8.65 -17.32,-14.84 -26.42,-24.38 -1.2,-1.26 -2.89,-3.11 -4.06,-4.4l-15.51 -18.36c-59.65,-69.98 -130.95,-168.97 -159.35,-255.48l-23.75 -60.93c-24.74,-78.57 -33.74,-161.31 -33.74,-250.73 22.86,-9.62 11.94,-63.76 13.95,-88.42 3.69,-45.44 14.22,-43.89 18.36,-92.63 5.75,-67.69 47.13,-187.96 84.52,-238.66 58.41,-79.18 142.25,-202.62 224.65,-257.22 51.59,-34.2 145.56,-99.44 203.09,-117.49 24.12,-7.57 16.85,-2.37 39.51,-12.79l170.66 -39.64c29.36,-3.35 70.04,-2.18 100.34,-2.17 186.13,0.06 110.15,8.85 195.81,23.97 115.1,20.32 56.7,16.09 157.81,53.75 63.19,23.53 121.31,77.95 166.77,103.54 24.7,13.91 10.4,1.88 32.3,19.07 139.07,109.15 234.63,294.86 274.43,469.67 26.71,117.24 13.54,129.89 25.14,184.12z"/>
  <path class="fil3" d="M654.39 3894.79c-7.44,-40.87 44.26,-97.58 72.97,-128.09 1.19,-1.26 2.99,-3.01 4.18,-4.28l105.73 -131.31c1.17,-1.29 2.9,-3.11 4.05,-4.42l111.9 -142.08c1.69,-1.79 6.67,-6.78 8.35,-8.59l85.8 -108.91c1.08,-1.41 2.49,-3.48 3.57,-4.89l113.93 -140.05c8.63,-9.23 3.93,-3.51 12.44,-12.96 6.75,-7.51 11.8,-13.96 18.95,-23.39l85.58 -109.13c1.19,-1.27 2.99,-3.02 4.17,-4.3l97.41 -122.7c1.13,-1.34 2.79,-3.21 3.9,-4.56 1.12,-1.35 2.73,-3.27 3.84,-4.64 4.79,-5.89 6.34,-7.91 11.15,-14.24l90.94 -112.24c1.14,-1.33 2.8,-3.2 3.93,-4.54 35.11,-42.02 28.07,-46.45 77.97,-99.82 5.59,-5.98 13.26,-14.39 20.04,-22.29l142.58 -179.14c8.59,-11.73 7.05,-12.07 16.95,-25.38l245.94 -304.36c1.13,-1.34 2.74,-3.26 3.87,-4.6l7.75 -9.18c62.18,-73.37 91.88,-125.63 172.05,-192 14.3,-11.85 27.36,-21.23 43.43,-32.77 10.44,-7.49 16.78,-11.29 25.17,-17.16l153.27 -83.78c1.98,-0.76 4.31,-1.42 6.29,-2.17l139 -47.26c25.15,-6.03 54.75,-3.4 81.42,-3.24l958.29 0.05c0,53.26 10.04,180.34 -9.2,222.51 -196.72,6.41 -404.02,0.55 -601.92,0.48 -183.38,-0.07 -246.74,16.38 -386.54,74.37 -163.69,67.9 -92.53,46.63 -185.14,112.77 -41.1,29.36 -48.39,42.74 -82.41,71.27 -40.21,33.73 -8.89,23.25 -54.53,63.97l-64.99 77.72c-43.37,49.69 -68.64,100.07 -123.96,163.97l-155.18 191.75c-91.78,104.22 -122.68,157.49 -202.45,255.05 -13.56,16.59 -20.66,24.79 -34.31,41.64l-235.31 298.53c-42.02,53.78 -129.78,151.87 -162.98,210.93 -39.37,70.02 -25.09,20.14 -101.17,126.7 -14.32,20.05 -0.51,0.66 -10.82,14.09l-22.11 28.27c-64.65,70.61 -34.59,48.44 -71.18,89.52 -41.29,46.35 -31.91,69.72 -138.66,69.44 -83.82,-0.21 -216.07,7.6 -293.97,-4.53z"/>
  <path class="fil1" d="M1473.11 6446.22c-86.68,19.8 -450.26,4.98 -566.05,4.98 -5.15,-51.24 -20.1,-25.54 -67.05,-36.06l-44.84 -22.99c-1.81,-0.88 -4.21,-1.61 -6.02,-2.5 -1.78,-0.88 -4.15,-1.69 -5.89,-2.62l-41.33 -34.83c-72.25,-72.46 -31.85,-27.75 -71.46,-97.22 -16.06,-28.16 -9.4,-32.83 -12.98,-82.07l-31.02 -2.29 0 -568.94 1533.9 0.28c-1.73,5.11 -4.55,4.67 -5.45,7.28l-131.66 46.03c-78.82,33.49 -116.26,58.66 -190.97,98.6 -8.5,4.55 -16.11,9.05 -26.84,15.46l-63.96 53.26c-38.78,38.78 -27.61,16.95 -57.97,66.7 -25.81,42.27 -48.25,55.96 -78.38,108.65l-68.15 124.74c-13.16,55.75 -21.38,106.41 -41.08,155.99 -18.44,46.38 -5.54,144.77 -22.84,167.54z"/>
  <path class="fil7" d="M12072.73 2857.49c-85.51,-22.87 -531.28,2.21 -669.45,-5.86 -69.63,-4.06 -125.61,-57.43 -158.84,-110.03 -20.8,-32.93 -30.09,-44.9 -30.3,-99.35 -0.15,-41.31 -0.62,-51.45 15.04,-83.86 66.07,-136.73 169.74,-129.01 310.18,-128.99 71.88,0.01 500.84,10.8 528.61,-8.07l800.58 0c78.23,-0.11 83.81,-8.86 140.24,20.62l42.65 25.08c1.37,1.1 3.21,2.78 4.54,3.93l40.04 44.63c32.95,52.67 35.44,70.88 35.44,125.87 0,56.11 2.95,54.39 -18.05,92.45l-6.01 10.93c-51.9,91.16 -126.3,117.35 -230.33,116.78 -136.83,-0.74 -742.83,7.35 -804.34,-4.12z"/>
  <path class="fil3" d="M6993.04 7247.02c0,87.82 7.45,79.45 -21.94,138.92 -0.87,1.75 -1.82,4.03 -2.69,5.78 -37.19,74.74 -109.23,117.75 -203.96,117.75l-1261.45 0c-39.04,0 -55.95,-5.87 -83.54,-18.06 -39.13,-17.29 -62.49,-30.48 -88.59,-63.8 -15.36,-19.59 -7.48,-9.29 -19.44,-31.37 -4.1,-7.56 -5.45,-10.25 -8.92,-16.48 -10.1,-18.12 0.25,4.26 -9.31,-16.08 -18.7,-39.8 -16.47,-118.76 1.33,-155.81 0.83,-1.73 2.17,-3.74 3.03,-5.43 0.87,-1.7 2.14,-3.77 3.02,-5.46l61.85 -82.07c1.37,-1.11 3.31,-2.69 4.72,-3.75l37.95 -21.32c26.77,-13.83 29.32,-20.63 55.57,-20.63l1371.52 0c22.95,0 12.75,5.6 28.07,14.27 38.61,21.86 64.67,31.56 94.41,74.91 15.71,22.88 38.38,61.93 38.38,88.61z"/>
  <path class="fil7" d="M12069.71 3708.17c-31.55,-26.11 -530.51,-10.73 -615.06,-10.62 -94.87,0.14 -115.31,-12.82 -193.9,-76.24 -23.99,-19.35 -12.85,-13.85 -28.68,-44.63 -22.89,-44.51 -17.88,-26.54 -17.66,-97.33 0.3,-92.76 22.88,-60.7 28.08,-127.31 60.25,-11.39 67.89,-65.49 153.06,-75.68 100.24,-11.99 635.25,13.87 671.83,-8.43l666.34 -0.63c42.39,1.07 68.45,14.87 97.5,37.95l17.59 16.28c27.8,25.27 55.97,65.43 66.92,102.41 5.68,19.18 4.26,43.1 4.17,64.21 -0.2,47.16 1.66,51.22 -20.19,90.32l-6.07 10.86c-17.66,32.53 -29.85,51.87 -60.87,74.6 -65.31,47.87 -136.76,44.3 -226.68,44.24 -178.79,-0.1 -357.59,0 -536.39,0z"/>
  <path class="fil3" d="M7523.57 4089.2c-62.55,3.21 -92.97,41.36 -166.25,15.2 -85.67,-30.6 -69.23,-41.69 -91.69,-68.08 -30.14,-35.43 -27.07,-14.32 -51.55,-75.38 -10.77,-26.85 -16.41,-45.62 -8.62,-81.94 33.9,-158.05 160.19,-165.56 327.49,-239.61l273.74 -106.97c9.9,-89.23 4.29,-198.38 4.29,-289.89 0,-154.73 -10.05,-134.09 20.16,-270.21 31.52,-130.45 295.72,-186.35 372.34,0.17 26.72,65.04 24.98,48.27 24.82,134.55l-0.05 457.2c0.02,98.78 14.08,120.06 -26.71,210.38l-30.87 44.5c-29.61,31.86 -159.84,75.3 -207.83,97.03 -41,18.57 -69.92,29.54 -119.84,43.36l-319.43 129.68z"/>
  <path class="fil3" d="M2111.43 7272.42c23.66,-24.94 58.3,-10.21 91.1,-0.06 160.68,49.71 358,-30.79 389.79,-37.13 67.99,-13.55 74.39,-22.27 146.49,-59.17 40.64,-20.8 -24.26,13.76 11.04,-6.41 37.11,-21.19 96.01,-45.46 111.79,-92.62l59.18 -9.16c69.28,4.32 713.45,-10.78 754.67,8.64l26.21 16.12c2.24,1.24 9.03,4.43 11.27,5.67l55.64 45.96c1.14,1.32 2.82,3.17 3.93,4.54 1.55,1.92 5.9,7.55 7.32,9.61 36.03,52.5 39.57,83.68 38.91,139.71 -0.65,55.18 -2.37,47.5 -19.69,82.15 -13.64,27.28 -11.21,30.35 -40.76,60.84 -75.16,77.54 -139.46,68.41 -244.88,68.38 -113.94,-0.03 -1164.92,8.18 -1224.61,-2.98 -9.77,-1.83 -30.5,-9.08 -38.37,-12.43 -90.08,-38.27 -154.71,-120.02 -139.04,-221.65z"/>
  <path class="fil3" d="M9730.97 7272.42c12.73,-35.86 84.03,11.71 208.29,12.1 206.23,0.66 240.33,-42.42 272.51,-49.46 27.67,-6.06 24.35,-0.35 50.75,-11.09l83.78 -42.39c30.14,-13.51 15.77,-5.61 43.29,-26.36 61.39,-46.28 76.99,-34.27 91.59,-78.2l59.18 -9.16c201.12,12.56 496.11,-4.47 711.84,0.68 39.95,0.96 29.18,0.63 58.33,17.87l88.87 71.99c54.4,79.26 55.12,176.63 1.95,255.38 -70.75,104.81 -174.89,95.7 -268.36,95.68 -113.94,-0.03 -1164.92,8.18 -1224.61,-2.98 -9.77,-1.83 -30.5,-9.08 -38.37,-12.43 -5.74,-2.44 -27.85,-12.34 -34.84,-15.97 -48.81,-25.33 -63.11,-53.56 -84.83,-92.94 -0.91,-1.64 -2.18,-3.74 -3.09,-5.38 -22.01,-39.35 -24.75,-52.42 -16.28,-107.35z"/>
  <path class="fil7" d="M12072.73 4546.72c-74.44,-23.38 -547.96,-2 -677.29,-8.45l-7.38 -10.9c-29.93,-33.48 -35.27,-1.08 -79.46,-38.36l-21.26 -20.58c-40.32,-35.85 -52.37,-59.26 -63.8,-117.17 -14.01,-70.98 28.67,-154.35 84.71,-189.06 176.31,-109.2 586.83,8.35 764.46,-48.64 135.36,6.13 286.96,2.15 423.56,0.73 60.38,-0.63 47.49,-3.42 85.54,16.05 79.4,40.61 125.99,100.11 126.4,195.76 0.34,78.8 -26.47,129.61 -84.17,178.92 -19.77,16.9 -4.63,6.23 -30.85,19.95 -36.29,19 -34.78,22.12 -88.3,21.76 -143.19,-0.96 -289.15,-2.62 -432.18,-0.01z"/>
  <path class="fil3" d="M8474.61 7247.02c0,37.85 3.88,81.28 -7.62,110.9l-48.18 78.82c-44.67,47.85 -90.03,72.74 -172.79,72.74l-626.49 0c-64.27,0 -133.88,-33.06 -172.13,-81.86 -15.36,-19.59 -7.47,-9.29 -19.43,-31.37l-18.24 -32.56c-17.28,-36.78 -16.66,-115.35 -1.56,-150.23 0.77,-1.79 2.05,-3.84 2.89,-5.58 0.83,-1.73 2.17,-3.74 3.04,-5.43 0.86,-1.7 2.13,-3.77 3.01,-5.46 0.88,-1.69 2.05,-3.84 2.92,-5.54 0.89,-1.71 1.96,-3.92 2.84,-5.63l22.23 -37.03c29.05,-35.87 96.76,-79.57 132.1,-79.57l736.56 0c14.76,0 23.84,11.81 55.59,29.08l66.9 60.1c11.14,16.22 7.1,12.18 14.91,27.42 16.56,32.33 23.46,32.07 23.46,61.2z"/>
  <path class="fil5" d="M3807.09 4808.77c-0.03,0.1 -28.44,59.12 -29.8,61.08 -67.88,97.35 -75.04,94.93 -179.17,95.99 -123.93,1.26 -248.52,0.08 -372.52,0.08 -95.28,0 -286.61,19.64 -351.86,-17.64 -219.46,-125.41 -121.01,-405.68 88.98,-408.46 123.76,-1.64 249,0.17 372.93,0.17 76.17,0 298.87,-14.35 351.46,18.89 83.05,52.49 151.61,126.2 119.97,249.89z"/>
  <path class="fil5" d="M5511.01 5655.38c-22.33,-74.54 5.03,-163.08 55.51,-207.85 104.76,-92.9 218.39,-62.15 402.12,-62.15 124.16,0 248.79,-1.08 372.88,-0.14 78.89,0.59 147.18,32.95 183.98,94.29 9,15 28.88,46.32 32.1,59.32 19.8,79.79 -8.07,157.09 -60.6,213.43 -67.9,72.85 -136.15,59.24 -215.11,59.2l-558.8 -0.04c-61.52,-0.27 -69.32,7.48 -107.27,-15.86 -1.57,-0.97 -3.67,-2.4 -5.27,-3.38 -1.62,-1 -3.81,-2.29 -5.46,-3.29l-65.76 -66.7c-13.33,-23.6 -20.32,-40.13 -28.32,-66.84z"/>
  <path class="fil3" d="M5088.16 7247.02c0,93 7.39,80.34 -24.63,144.7 -37.19,74.74 -109.23,117.75 -203.96,117.75 -101.33,0 -421.65,15.84 -498.38,-18.06 -25.56,-11.29 -43.37,-19.27 -63.91,-37.69 -13.63,-12.23 -12.42,-10.46 -24.69,-26.11l-37.66 -63.93c-18.71,-39.8 -16.47,-118.76 1.33,-155.81 0.83,-1.73 2.17,-3.74 3.03,-5.43l5.94 -11c0.88,-1.71 1.96,-3.92 2.83,-5.63l22.24 -37.03c1.1,-1.37 2.78,-3.22 3.93,-4.54 6.91,-8 3.33,-4.16 12.28,-13.11 1.74,-1.74 6.87,-6.59 8.69,-8.25l51.63 -33.04c3.06,-1.58 15.83,-8.68 16.43,-8.97 18.17,-8.73 14.53,-11.66 39.14,-11.66l524.9 0c14.77,0 23.85,11.81 55.6,29.08l55.64 45.95c1.15,1.32 2.83,3.17 3.94,4.54l27.99 48.2c10.02,19.29 1.06,-1.88 8.94,16.47 7.59,17.69 8.76,2.07 8.76,33.56z"/>
  <path class="fil3" d="M13130.99 7247.02c0,87.82 7.46,79.45 -21.94,138.92 -0.86,1.75 -1.82,4.03 -2.69,5.78 -37.19,74.74 -109.23,117.75 -203.96,117.75 -101.33,0 -421.65,15.84 -498.37,-18.06 -67.54,-29.84 -97.39,-66.3 -126.26,-127.72 -18.7,-39.8 -16.47,-118.76 1.33,-155.81 0.83,-1.73 2.17,-3.74 3.03,-5.43 0.87,-1.7 2.14,-3.77 3.02,-5.46l120.94 -116.1c18.17,-8.73 14.53,-11.66 39.14,-11.66l524.91 0c22.94,0 12.74,5.6 28.06,14.27l115.09 113.49c13.95,26.83 17.7,21.58 17.7,50.03z"/>
  <path class="fil8" d="M5909.38 4966.02c-174.18,0 -315.03,30.63 -386.3,-126.45 -65.31,-143.96 27.47,-299.7 208.51,-299.7 143.17,0 266.96,-21.45 344.22,59.78 100.55,105.7 51.9,261.3 30.01,287.73l-8.31 7.34c-89.29,76.84 -87.03,71.31 -188.13,71.31z"/>
  <path class="fil1" d="M10015.53 6187.7c40.25,15.11 49.49,15.23 85.1,42.68 89.09,68.67 65.14,79.26 99.32,165.17 51.2,128.66 -93.95,302.36 -209.22,309.84 -43.53,2.83 -92.43,4.11 -125.53,-10.92 -72.3,-32.84 -104.55,-46.86 -145.62,-116.38 -22.76,-38.54 -36.14,-37.58 -38.65,-83.86 -1.62,-29.8 -2.67,-107.9 1.81,-135.3 4.23,-25.85 30.62,-47.78 49.08,-73.26 57.63,-79.57 186.1,-134.59 283.7,-97.96z"/>
  <path class="fil1" d="M2595.23 6442.73c-0.05,46.52 -1.03,76.67 -19.63,113.38 -44.45,87.77 -151.2,153.42 -248.07,147.34 -62.88,-3.95 -24.18,-5.51 -47.09,-16.6 -48.08,-23.27 -16.48,17.54 -104.94,-38.47l-35.65 -25.73c-75.46,-72.5 -96.67,-181.35 -49.68,-290.09 17.59,-40.71 82.35,-110.47 131.38,-131.89 178.04,-77.78 275.61,38.46 355.12,130.17 22.42,25.85 18.67,-0.21 18.55,111.88z"/>
  <path class="fil9" d="M7523.57 4089.2c-63.47,81.75 -267.92,36.38 -323.93,-94.35 -11.5,-26.82 -9.91,-61.98 -9.83,-92.25 0.17,-65.74 21.44,-119.48 72.01,-162.29 73.21,-61.95 501.05,-197.04 524.2,-221.36 26.32,-27.66 5.17,-400.14 12.68,-497.06 3.53,-45.57 5.88,-38.13 32.45,-49.56 -30.21,136.12 -20.16,115.48 -20.16,270.21 0,91.51 5.61,200.66 -4.29,289.89l-273.74 106.97c-167.3,74.05 -293.59,81.56 -327.49,239.61 -7.79,36.32 -2.15,55.09 8.62,81.94 24.48,61.06 21.41,39.95 51.55,75.38 22.47,26.39 6.02,37.48 91.69,68.08 73.28,26.16 103.7,-11.99 166.25,-15.2z"/>
  <path class="fil10" d="M9296.93 4733.44l45.67 -73.07c17.78,-24.24 33.85,-40.66 51.26,-66.75 18.03,-27.03 34.33,-52.45 45.97,-73 50.63,-89.39 110.85,-188.58 135.1,-287.67 14.24,-58.19 8.94,0.56 28.12,-91.53 7.31,-35.11 14.62,-34.05 27.9,-43.72 5.68,46.53 -0.02,28.58 -8.54,51.47 -22.93,61.58 6.48,28.46 -43.65,138.83 -61.43,135.24 -122.05,267.5 -215.95,383.73 -15.21,18.83 -32.67,48.13 -53.24,58.19l-12.64 3.52z"/>
  <path class="fil9" d="M9083.8 3031.88c-50.91,-30.25 -57.42,-85.61 -125.53,-147.83 -27.48,-25.1 -29.81,-54.24 -81.26,-95.47 -37.93,-30.4 -18.79,-2.08 -49.76,-40.78 -34.93,-43.64 -73.48,-47.69 -98.61,-90.23 59.78,5.22 257.19,207 303.84,279.91 20.25,31.65 41.98,58.2 51.32,94.4z"/>
  <path class="fil11" d="M907.07 6451.2c-102.72,0 -205.32,-84.81 -250.28,-174.23l-12.75 -29.56c-20.68,-42.81 -17.55,-23.56 -17.55,-76.79l31.02 2.29c3.58,49.24 -3.08,53.91 12.98,82.07 39.61,69.48 -0.79,24.77 71.46,97.22l41.33 34.83c1.74,0.93 4.11,1.74 5.89,2.62 1.81,0.89 4.21,1.62 6.02,2.5l44.84 22.99c46.95,10.52 61.9,-15.18 67.05,36.06z"/>
  <path class="fil12" d="M9033.42 4987.4c12.38,-31.53 6.33,-21.24 46.97,-54.89l192.08 -189.13c20.08,-15.17 -2.02,-4.9 24.47,-9.95 -10.39,47.68 -136.61,158.21 -183.42,197.33 -10.6,8.86 -18.51,16.54 -31.4,28.23l-48.7 28.41z"/>
  <path class="fil13" d="M7514.72 5255.19c-44.79,4.61 -126.01,-35.11 -163.47,-48.88 -28.89,-10.63 -17.35,-8.98 -34.31,-17.11 -23.98,-11.49 -30.87,-7.34 -50.34,-14.14 -8.58,-2.99 -38.83,-15.41 -60.66,-54.83 49.36,8.15 105.44,49.31 190.45,81.08 69.26,25.88 91.29,24.8 118.32,53.88z"/>
  <path class="fil14" d="M8588.55 5235.21c21.99,-28.99 88.77,-45.02 143.76,-69.75 41.01,-18.44 94.9,-62.57 146.92,-71.78 -33.7,52.32 -146.25,90.98 -201.03,114.9 -42.4,18.51 -24.9,26.07 -89.65,26.62z"/>
  <path class="fil12" d="M6585.82 2818.06c-3.02,-39.53 115.34,-181.03 152.71,-227.46 11.38,-14.14 0.2,-4.48 11.45,-14.38 13.73,-12.08 7.14,-6.41 22.38,-11.58 -2.16,27.07 9.98,7.7 -27.42,49.21 -75.49,83.78 -124.05,188.86 -159.12,204.21z"/>
  <path class="fil15" d="M9212.75 2499.46c10.31,21.27 0.46,2.14 10.83,20.3 2.23,3.9 8,12.96 12.48,21.13l-28.31 -5.82c-14.76,-34.53 -88.6,-84.63 -114.41,-113.82 -22.1,-24.99 -2.89,-0.13 -17.58,-27.59 45.35,3.4 108.88,83.59 136.99,105.8z"/>
  <path class="fil16" d="M9448.58 2819.18c-29.62,-18.93 -57.44,-73.87 -103.58,-133.67 -26.71,-34.61 -22.26,-31.73 -23.76,-51.53 28.67,10.32 50.37,47.34 64.68,69.85 17.25,27.13 40.25,67.41 59.56,83.34l3.11 32.02z"/>
  <path class="fil10" d="M6952.46 4952.65c-43.19,-13.99 -112.38,-85.73 -144.08,-120.45 -35.49,-38.86 -24.7,-20.6 -36.5,-56.12l176.49 168.04c1.29,2.31 2.69,5.71 4.09,8.53z"/>
  <path class="fil13" d="M6772.36 2564.65c-1.91,-30.53 59.12,-79.34 83.19,-102.71 28.31,-27.5 22.51,-21.49 42.12,-25.98 -4.3,30.24 -41.1,52.49 -86.01,100.29 -25.55,27.19 -17.62,21.85 -39.29,28.4z"/>
  <path class="fil17" d="M9321.23 2633.98l-85.17 -93.09c-4.48,-8.17 -10.25,-17.23 -12.48,-21.13 -10.37,-18.16 -0.52,0.97 -10.83,-20.3 33.15,11.28 16.6,5.19 37.2,27.43l25.02 25.91c1.14,1.19 2.97,2.92 4.08,4.11 6.82,7.33 5.82,6.42 11.19,12.85 1.13,1.36 2.63,3.43 3.78,4.82 32.21,38.86 30.57,27.69 27.22,59.41z"/>
  <path class="fil18" d="M6897.66 2435.95c4.55,-23.52 -3.06,-10.11 14.54,-27.02 10.16,-9.76 17.43,-13.68 28.6,-23.01 25.64,-21.44 34.56,-34.98 68.59,-41.1 -23.29,35.65 -20.47,24.96 -51.44,50.9 -27.55,23.06 -27.77,35.3 -60.29,40.23z"/>
  <path class="fil19" d="M3490.86 3837.61c-2.84,-4.64 -18.94,-0.26 7.04,-33.67 30.12,-38.72 44.25,-63.44 70.59,-74.32 -14.33,44.1 -42.64,78.77 -77.63,107.98z"/>
  <path class="fil18" d="M9055.75 2372.96c-2.61,-1.18 -6.49,-5.62 -7.87,-3.48l-47.51 -33.25c-35.54,-23.64 -25.32,-4.05 -49.03,-44.08 50.29,4.03 56.11,37.59 98.12,54.69l6.28 26.12z"/>
  <path class="fil13" d="M7097.4 2280.57c22.13,-31.78 61.69,-53.94 98.11,-62.4 -4.09,36.1 -7.65,18.66 -38.69,36.81 -29.94,17.52 -13.13,20.77 -59.43,25.59z"/>
  <path class="fil20" d="M6551.64 2876.56c3.3,-38.33 1.04,-49.68 34.18,-58.5 -1.69,27.32 -11.38,40.07 -34.18,58.5z"/>
 </g>
</svg>
