<?xml version="1.0" standalone="no"?>
<!DOCTYPE svg PUBLIC "-//W3C//DTD SVG 20010904//EN"
 "http://www.w3.org/TR/2001/REC-SVG-20010904/DTD/svg10.dtd">
<svg version="1.0" xmlns="http://www.w3.org/2000/svg"
 width="246.000000pt" height="151.000000pt" viewBox="0 0 246.000000 151.000000"
 preserveAspectRatio="xMidYMid meet">
<metadata>
Created by potrace 1.16, written by Peter Selinger 2001-2019
</metadata>
<g transform="translate(0.000000,151.000000) scale(0.100000,-0.100000)"
fill="#000000" stroke="none">
<path d="M645 1290 c-40 -16 -63 -53 -67 -105 l-3 -50 142 -3 c143 -3 143 -3
149 -27 12 -49 -6 -55 -157 -55 l-139 0 0 45 0 45 -161 0 c-91 0 -169 -4 -180
-10 -21 -12 -25 -50 -7 -68 8 -8 63 -12 180 -12 l168 0 0 -50 0 -50 -271 -2
c-246 -3 -273 -5 -283 -20 -8 -13 -8 -23 0 -35 10 -16 37 -18 283 -21 l271 -2
0 -60 0 -60 -217 -2 -218 -3 -3 -29 c-2 -16 2 -32 10 -37 7 -5 106 -9 221 -9
l207 0 0 -89 c0 -141 10 -205 35 -235 29 -34 44 -33 51 3 9 41 78 109 126 122
58 15 133 -5 170 -45 15 -17 28 -36 28 -44 0 -7 7 -26 15 -42 l16 -30 429 0
429 0 11 38 c21 75 86 125 164 125 79 0 136 -43 156 -118 5 -17 16 -20 80 -23
119 -4 115 -14 115 236 0 141 -4 213 -11 223 -19 23 -83 150 -111 219 -14 36
-37 82 -50 102 -12 21 -23 40 -23 43 0 3 -10 19 -22 36 -29 39 -109 84 -176
98 -63 13 -1325 14 -1357 1z m1482 -135 c12 -8 27 -32 33 -53 12 -40 30 -80
67 -153 13 -26 23 -61 23 -78 l0 -31 -205 0 -205 0 0 165 0 165 133 0 c102 0
138 -3 154 -15z m-1322 -425 c3 -11 3 -29 0 -40 -6 -18 -15 -20 -121 -20
l-114 0 0 40 0 40 114 0 c106 0 115 -2 121 -20z"/>
<path d="M782 429 c-35 -14 -52 -35 -73 -90 -22 -57 -24 -98 -6 -155 17 -56
45 -92 84 -105 114 -37 204 90 167 236 -17 66 -31 87 -79 109 -37 18 -59 19
-93 5z m73 -49 c84 -32 105 -152 40 -222 -32 -35 -67 -44 -106 -28 -40 17 -59
57 -59 124 0 66 12 97 48 119 32 19 42 20 77 7z"/>
<path d="M1984 424 c-79 -39 -109 -180 -58 -275 48 -87 126 -101 199 -35 35
30 38 37 42 103 7 94 -2 138 -36 173 -47 50 -94 60 -147 34z m94 -50 c34 -20
62 -74 62 -120 0 -78 -64 -145 -125 -130 -97 24 -108 217 -14 255 34 14 47 13
77 -5z"/>
</g>
</svg>
