<?xml version="1.0" standalone="yes"?>
<svg width="207" height="250">
<path style="fill:#ffffff; stroke:none;" d="M0 0L0 250L207 250L207 0L0 0z"/>
<path style="fill:#5b3b26; stroke:none;" d="M102 22L103 25L96 24L98 27L90 25L90 34L86 33L85 40L107 39.2508L126 31C123.216 22.0975 109.717 22.0008 102 22z"/>
<path style="fill:#938376; stroke:none;" d="M95.6667 23.3333L96.3333 23.6667L95.6667 23.3333z"/>
<path style="fill:#857163; stroke:none;" d="M102 23L100 24L100 25L102 23z"/>
<path style="fill:#e6ccba; stroke:none;" d="M98 27L99 28L98 27z"/>
<path style="fill:#492c1e; stroke:none;" d="M126 29C113.277 39.0736 100.319 40.1268 85 40L86 61L90 61C90.2471 57.8734 90.2069 52.9578 92.5995 50.6034C96.1309 47.1285 119.824 42.7474 123.722 45.7431C128.924 49.7397 126.365 58.6908 133 61C134.958 50.2928 135.525 36.0773 126 29z"/>
<path style="fill:#b09b95; stroke:none;" d="M131 34L132 35L131 34z"/>
<path style="fill:#c5bbb6; stroke:none;" d="M84 38L84 42L85 42L84 38z"/>
<path style="fill:#ffc4a5; stroke:none;" d="M90 61C85.9213 61.3111 82.2452 63.031 83.3372 67.9468C85.1155 75.9522 95.9596 81.777 99.9715 88.375C102.603 92.703 98.7082 96.7386 98.3827 101C97.9841 106.219 104.997 113.717 109.385 115.914C114.647 118.548 122.533 106.366 122.776 102C123.202 94.3618 116.79 93.2305 111 91L111 90L121 90L122 90C127.889 77.353 136.497 72.7488 134 58L133 58L133 61C126.94 57.4958 129.357 48.6986 123.722 45.179C117.477 41.278 106.567 47.7476 100 48.6998C97.5208 49.0593 93.8037 48.448 92.0131 50.6034C89.9683 53.0648 90.1299 57.9742 90 61z"/>
<path style="fill:#a87d65; stroke:none;" d="M100.667 48.3333L101.333 48.6667L100.667 48.3333z"/>
<path style="fill:#b3a29a; stroke:none;" d="M133 50L133 53L134 53L133 50z"/>
<path style="fill:#5c3c24; stroke:none;" d="M96 55L96 56L104 56L104 54L96 55z"/>
<path style="fill:#5b3a27; stroke:none;" d="M116 54L116 56L124 57L116 54z"/>
<path style="fill:#2b292b; stroke:none;" d="M97 59L97 63L100 63L100 59L97 59z"/>
<path style="fill:#292c26; stroke:none;" d="M119 59L118 60L118 62L119 63L121 63L122 62L122 60L121 59L119 59z"/>
<path style="fill:#b88f83; stroke:none;" d="M100.333 60.6667L100.667 61.3333L100.333 60.6667z"/>
<path style="fill:#ffffff; stroke:none;" d="M104 76C105.874 82.3115 112.561 83.6336 115 77L104 76z"/>
<path style="fill:#ffaa81; stroke:none;" d="M120 88L111 90L111 91L121 94L120 88z"/>
<path style="fill:#364c75; stroke:none;" d="M63 115C69.2837 127.312 74.4693 135.428 71 150L148 149C148 134.86 145.91 124.29 156 113C149.957 109.338 138.499 101.44 131.105 102.502C126.441 103.172 126.015 109.787 122.775 112.437C110.665 122.342 97.0355 114.381 93 102L63 115z"/>
<path style="fill:#385986; stroke:none;" d="M148 149L123 149L123 150L168 150C168 163.22 167.069 176.819 168.055 190C168.584 197.071 173.743 199.885 170 207C201.511 196.959 178.789 158.973 170.8 139C168.59 133.475 163.798 113.833 156 114.306C143.592 115.06 148 141.624 148 149M62 115C48.9952 127.658 43.6363 152.199 37.5864 169C35.0282 176.105 31.687 184.306 33.2785 192C34.6483 198.622 41.2892 203.283 47 206C46.0797 199.116 49.2065 195.234 56 194C56 185.117 52.194 164.887 57.0278 157.394C59.6683 153.3 67.5823 152.022 72 151C71.0976 136.983 73.8595 125.365 62 115z"/>
<path style="fill:#fcffea; stroke:none;" d="M123 137L123 145L142 145L142 137L123 137z"/>
<path style="fill:#d5dcde; stroke:none;" d="M142 137L142 145L143 145L142 137z"/>
<path style="fill:#e6974a; stroke:none;" d="M59 155L59 156C93.6696 156 131.699 160.638 165 151C157.121 147.694 144.534 150 136 150C111.747 150 81.543 145.007 59 155z"/>
<path style="fill:#a86a2f; stroke:none;" d="M149 214C154.727 211.279 162.631 206.774 165.682 200.985C168.075 196.445 167 189.968 167 185L167 150L150.028 156.702L149 173L149 214z"/>
<path style="fill:#625970; stroke:none;" d="M167 150L167 194L168 194C168 181.52 171.81 161.463 167 150z"/>
<path style="fill:#c88841; stroke:none;" d="M58 155L56.9853 188L57.7276 204.996L68 217L58 215C61.9282 222.962 74.1465 221.617 82 221.961C105.023 222.969 128.052 221 151 221L151 220L149 201L149 156L90 156L58 155z"/>
<path style="fill:#967656; stroke:none;" d="M56 156L56 194L57 194C57 183.089 60.2113 166.036 56 156z"/>
<path style="fill:#cb9e68; stroke:none;" d="M65 163L65 164L86 164L65 163z"/>
<path style="fill:#dfc9a1; stroke:none;" d="M64 164L64 177L65 177L64 164z"/>
<path style="fill:#fcffea; stroke:none;" d="M65 164L65 177L86 177L86 164L65 164z"/>
<path style="fill:#a1b3c8; stroke:none;" d="M187 185L187 190L188 190L187 185z"/>
<path style="fill:#95a7be; stroke:none;" d="M32 186L32 190L33 190L32 186z"/>
<path style="fill:#ffc4a5; stroke:none;" d="M67 228L68 228L78 221C70.0402 221 63.2219 222.007 58 215L68 217L56 194C40.3557 195.617 48.2495 216.679 56.1049 223.771C59.4885 226.826 63.5361 225.75 67 228M167 194C166.177 206.267 152.11 206.887 149 217L159 214C157.423 224.109 145.685 222.427 138 221L138 222C142.881 224.562 151.343 227.932 156.91 226.067C167.304 222.586 174.372 202.259 169 194L167 194z"/>
<path style="fill:#3e547e; stroke:none;" d="M169 207L170 208L169 207z"/>
<path style="fill:#fcac80; stroke:none;" d="M158 214C154.228 220.876 147.023 220.999 140 221L140 222C145.432 222 161.658 223.746 158 214z"/>
<path style="fill:#a76930; stroke:none;" d="M149 217L149 220L158 215L149 217z"/>
<path style="fill:#75645d; stroke:none;" d="M78 222L78 223L139 223L119 222L78 222z"/>
<path style="fill:#364c75; stroke:none;" d="M68 225L68 228L152 228L152 226C123.904 222.214 96.2533 222.536 68 225z"/>
</svg>
