<?xml version="1.0" standalone="no"?>
<!DOCTYPE svg PUBLIC "-//W3C//DTD SVG 20010904//EN"
 "http://www.w3.org/TR/2001/REC-SVG-20010904/DTD/svg10.dtd">
<svg version="1.0" xmlns="http://www.w3.org/2000/svg"
 width="248.000000pt" height="216.000000pt" viewBox="0 0 248.000000 216.000000"
 preserveAspectRatio="xMidYMid meet">
<metadata>
Created by potrace 1.16, written by Peter Selinger 2001-2019
</metadata>
<g transform="translate(0.000000,216.000000) scale(0.100000,-0.100000)"
fill="#000000" stroke="none">
<path d="M1167 2012 c-32 -20 -63 -44 -67 -53 -5 -9 -15 -57 -21 -108 -11 -83
-11 -93 4 -108 16 -16 17 -15 17 23 0 40 2 42 59 73 76 40 136 42 209 5 51
-25 52 -27 52 -70 0 -34 3 -42 15 -38 29 12 12 199 -22 236 -30 34 -119 78
-154 77 -21 0 -56 -15 -92 -37z"/>
<path d="M1065 1361 c-51 -23 -218 -125 -267 -163 -53 -41 -265 -394 -254
-423 3 -8 23 -23 45 -34 35 -18 167 -71 177 -71 2 0 4 65 4 144 l0 145 478 -2
477 -2 3 -135 c2 -137 7 -174 20 -154 4 6 30 16 57 22 63 15 165 62 165 76 0
15 -164 319 -201 372 -16 23 -41 51 -57 62 -43 31 -305 170 -332 177 -22 5
-32 -3 -74 -60 -28 -36 -53 -65 -57 -65 -4 0 -29 29 -55 65 -54 71 -66 75
-129 46z"/>
</g>
</svg>
