<?xml version="1.0" standalone="no"?>
<!DOCTYPE svg PUBLIC "-//W3C//DTD SVG 20010904//EN"
 "http://www.w3.org/TR/2001/REC-SVG-20010904/DTD/svg10.dtd">
<svg version="1.0" xmlns="http://www.w3.org/2000/svg"
 width="222.000000pt" height="260.000000pt" viewBox="0 0 222.000000 260.000000"
 preserveAspectRatio="xMidYMid meet">
<metadata>
Created by potrace 1.16, written by Peter Selinger 2001-2019
</metadata>
<g transform="translate(0.000000,260.000000) scale(0.100000,-0.100000)"
fill="#000000" stroke="none">
<path d="M1044 2372 c5 -8 -4 -12 -30 -12 -36 0 -37 0 -19 -20 18 -20 18 -20
-29 -6 l-48 15 4 -45 c3 -42 2 -45 -18 -40 -31 8 -34 -8 -27 -149 5 -109 8
-125 23 -125 14 0 20 13 26 58 l9 57 64 7 c36 4 95 16 132 28 120 36 138 28
169 -77 13 -48 26 -73 35 -73 17 0 17 -3 20 115 3 135 -33 200 -137 245 -56
24 -186 40 -174 22z"/>
<path d="M859 1545 c-109 -42 -207 -91 -238 -119 -55 -50 -271 -613 -271 -708
0 -56 27 -99 92 -145 l47 -34 -5 33 c-6 43 21 77 67 87 l34 7 0 187 0 186 84
31 83 30 467 -1 466 0 -87 -31 -88 -31 0 -289 0 -289 72 50 c76 54 108 92 108
129 0 32 17 27 40 -10 26 -43 25 -62 -2 -89 l-23 -21 30 15 c93 47 155 125
155 194 0 65 -221 649 -266 702 -13 16 -55 45 -93 65 -68 36 -192 86 -211 86
-6 0 -23 -26 -38 -57 -26 -56 -29 -58 -87 -76 -51 -15 -69 -16 -121 -7 -33 6
-66 15 -74 20 -7 5 -23 33 -34 63 l-21 56 -86 -34z m591 -355 l0 -40 -100 0
-100 0 0 40 0 40 100 0 100 0 0 -40z"/>
<path d="M755 360 c-41 -15 -51 -23 -53 -44 l-3 -26 420 0 421 0 0 23 c0 19
-10 25 -62 42 -55 16 -100 19 -368 21 -270 1 -311 0 -355 -16z"/>
</g>
</svg>
