<?xml version="1.0" standalone="no"?>
<!DOCTYPE svg PUBLIC "-//W3C//DTD SVG 20010904//EN"
 "http://www.w3.org/TR/2001/REC-SVG-20010904/DTD/svg10.dtd">
<svg version="1.0" xmlns="http://www.w3.org/2000/svg"
 width="224.000000pt" height="200.000000pt" viewBox="0 0 224.000000 200.000000"
 preserveAspectRatio="xMidYMid meet">
<metadata>
Created by potrace 1.16, written by Peter Selinger 2001-2019
</metadata>
<g transform="translate(0.000000,200.000000) scale(0.100000,-0.100000)"
fill="#000000" stroke="none">
<path d="M1148 1566 c-16 -8 -28 -13 -28 -10 0 3 -7 -2 -15 -10 -9 -9 -21 -19
-28 -23 -7 -5 -23 -20 -36 -35 -21 -24 -22 -27 -5 -23 10 2 46 15 79 29 75 32
88 32 171 2 75 -27 102 -24 78 9 -8 11 -18 20 -22 20 -4 0 -6 6 -6 13 2 10 -1
10 -12 1 -10 -8 -14 -8 -14 0 0 6 -3 10 -7 10 -29 -5 -35 1 -22 19 12 15 12
16 -2 4 -12 -9 -24 -10 -43 -2 -37 14 -56 13 -88 -4z"/>
<path d="M1340 1129 c0 -5 5 -7 10 -4 19 12 10 -18 -15 -51 -24 -31 -26 -32
-66 -21 -31 8 -47 7 -62 -2 -15 -10 -21 -10 -27 -1 -9 14 -39 15 -92 5 -41 -8
-44 -3 -39 53 l2 22 -53 -21 c-29 -12 -72 -28 -95 -36 -48 -17 -79 -44 -140
-127 -33 -45 -41 -62 -32 -72 6 -8 13 -31 16 -51 2 -21 6 -44 8 -50 3 -10 76
-13 318 -13 l313 0 28 -29 28 -29 -9 -106 c-5 -58 -7 -106 -6 -106 2 0 21 16
43 36 38 34 40 39 40 94 0 107 4 116 76 144 35 14 74 26 85 26 18 0 20 4 14
33 -15 74 -49 161 -79 200 -29 38 -42 46 -141 79 -124 42 -125 42 -125 27z"/>
<path d="M1453 352 c-35 -22 -43 -33 -43 -57 0 -47 -10 -53 -90 -57 -41 -3
-89 -11 -107 -18 -26 -12 -43 -12 -95 -2 -78 16 -192 31 -196 27 -2 -2 0 -19
3 -38 l7 -35 281 5 c155 3 283 7 285 8 1 1 1 46 0 98 l-3 96 -42 -27z"/>
</g>
</svg>
